<svg xmlns="http://www.w3.org/2000/svg" width="18.71" height="16.628" viewBox="0 0 18.71 16.628"><path d="M13.077,2.8l2.93,2.93a.318.318,0,0,1,0,.448L8.913,13.272,5.9,13.606a.632.632,0,0,1-.7-.7l.335-3.014L12.629,2.8a.318.318,0,0,1,.448,0Zm5.262-.744L16.754.47a1.27,1.27,0,0,0-1.793,0l-1.15,1.15a.318.318,0,0,0,0,.448L16.741,5a.318.318,0,0,0,.448,0l1.15-1.15A1.27,1.27,0,0,0,18.339,2.055Zm-5.866,9.287v3.307H2.079V4.254H9.543a.4.4,0,0,0,.276-.114l1.3-1.3a.39.39,0,0,0-.276-.666H1.559A1.56,1.56,0,0,0,0,3.735V15.168a1.56,1.56,0,0,0,1.559,1.559H12.993a1.56,1.56,0,0,0,1.559-1.559V10.043a.39.39,0,0,0-.666-.276l-1.3,1.3A.4.4,0,0,0,12.473,11.342Z" transform="translate(0 -0.1)" fill="#3b4557"/></svg>